<?xml version="1.0" standalone="no"?>
<!DOCTYPE svg PUBLIC "-//W3C//DTD SVG 20010904//EN"
 "http://www.w3.org/TR/2001/REC-SVG-20010904/DTD/svg10.dtd">
<svg version="1.0" xmlns="http://www.w3.org/2000/svg"
 width="512.000000pt" height="512.000000pt" viewBox="0 0 512.000000 512.000000"
 preserveAspectRatio="xMidYMid meet">

<g transform="translate(0.000000,512.000000) scale(0.100000,-0.100000)"
fill="#000000" stroke="none">
<path d="M1952 5043 l-1752 -3 0 -795 c0 -437 3 -795 6 -795 4 0 17 12 30 28
13 15 24 23 24 18 0 -6 16 5 35 24 19 19 35 40 35 47 0 7 6 13 13 13 11 0 50
34 83 72 6 7 24 22 40 33 15 11 40 32 55 48 14 15 30 27 34 27 9 0 45 40 45
49 0 3 14 12 30 19 17 8 36 19 43 26 17 17 123 86 131 86 5 0 20 9 36 20 15
11 30 17 34 13 3 -3 6 -1 6 5 0 7 9 12 19 12 11 0 23 5 26 10 3 6 16 10 28 10
31 0 45 12 49 40 2 14 6 30 10 35 3 6 9 26 12 45 4 19 11 44 15 55 19 45 56
120 63 125 3 3 10 18 13 33 4 15 11 27 16 27 5 0 9 7 9 15 0 8 18 34 40 56 22
23 40 45 40 50 0 11 84 94 140 140 24 19 60 51 80 72 21 20 45 37 54 37 9 0
16 5 16 10 0 6 9 10 20 10 11 0 20 5 20 10 0 6 7 10 15 10 8 0 15 5 15 10 0 6
9 10 20 10 11 0 20 4 20 9 0 5 13 12 30 16 16 4 32 11 35 16 4 5 15 9 26 9 10
0 19 5 19 10 0 6 9 10 20 10 11 0 20 5 20 10 0 6 11 10 25 10 14 0 25 4 25 9
0 5 24 12 52 15 29 4 57 11 63 15 12 10 54 18 170 32 115 15 139 14 260 0 55
-7 121 -15 148 -18 26 -3 47 -8 47 -13 0 -4 25 -11 55 -15 30 -3 55 -11 55
-16 0 -5 11 -9 25 -9 14 0 25 -4 25 -10 0 -5 7 -10 16 -10 9 0 24 -8 33 -18
12 -14 37 -21 91 -26 102 -9 182 -24 265 -52 39 -12 96 -30 128 -40 31 -9 57
-21 57 -25 0 -5 9 -9 20 -9 11 0 20 -3 20 -8 0 -4 20 -16 45 -27 25 -11 45
-23 45 -27 0 -5 9 -8 19 -8 11 0 23 -9 26 -20 3 -11 13 -20 21 -20 8 0 14 -4
14 -10 0 -5 6 -10 14 -10 11 0 219 -192 271 -250 84 -94 166 -157 278 -214 20
-11 37 -23 37 -28 0 -4 7 -8 15 -8 9 0 26 -9 38 -20 12 -12 32 -23 44 -26 13
-4 23 -10 23 -15 0 -5 5 -9 10 -9 6 0 23 -12 37 -26 14 -14 39 -31 54 -36 16
-5 29 -14 29 -19 0 -5 5 -9 11 -9 7 0 19 -9 28 -19 9 -10 38 -31 63 -45 26
-14 59 -37 74 -51 14 -13 36 -27 48 -31 11 -4 27 -15 34 -25 7 -11 18 -19 23
-19 5 0 21 -10 34 -22 40 -38 54 -48 65 -48 5 0 10 -4 10 -10 0 -5 6 -10 14
-10 8 0 18 -9 21 -20 3 -11 15 -20 25 -20 10 0 25 -6 32 -12 8 -7 26 -24 41
-37 l27 -24 0 766 0 767 -607 -2 c-335 -2 -1397 -4 -2361 -5z"/>
<path d="M2137 4933 c-2 -2 -44 -8 -93 -14 -49 -5 -98 -14 -109 -19 -11 -4
-41 -14 -67 -21 -27 -8 -48 -17 -48 -21 0 -4 -11 -8 -25 -8 -14 0 -25 -4 -25
-9 0 -5 -18 -12 -40 -16 -22 -4 -40 -11 -40 -16 0 -5 -9 -9 -20 -9 -11 0 -20
-4 -20 -10 0 -5 -7 -10 -15 -10 -8 0 -15 -4 -15 -10 0 -5 -9 -10 -20 -10 -11
0 -20 -4 -20 -9 0 -5 -14 -12 -31 -16 -17 -4 -48 -25 -69 -46 -21 -21 -42 -39
-47 -39 -13 0 -163 -146 -163 -158 0 -6 -8 -13 -18 -16 -9 -3 -23 -20 -31 -37
-7 -17 -24 -41 -37 -54 -13 -13 -24 -29 -24 -35 0 -5 -4 -10 -10 -10 -5 0 -10
-9 -10 -20 0 -11 -4 -20 -9 -20 -5 0 -13 -15 -16 -32 -4 -18 -11 -37 -15 -43
-15 -20 -63 -161 -67 -197 -4 -29 -10 -38 -23 -38 -11 0 -22 -4 -25 -10 -3 -5
-13 -10 -21 -10 -20 0 -180 -75 -188 -89 -4 -6 -25 -20 -47 -32 -38 -19 -50
-28 -123 -91 -17 -15 -34 -28 -38 -28 -4 0 -62 -54 -130 -119 -171 -166 -220
-211 -230 -211 -4 0 -8 -124 -8 -275 l0 -276 67 7 c38 4 76 11 85 15 9 5 30 9
47 9 16 0 33 5 36 10 3 6 21 10 40 10 19 0 37 5 40 10 3 6 24 10 46 10 21 0
39 5 39 10 0 6 20 10 45 10 25 0 45 -4 45 -10 0 -5 9 -10 21 -10 16 0 19 -4
14 -17 -7 -18 -24 -188 -25 -250 0 -44 22 -64 63 -56 18 3 33 10 35 15 2 4 14
8 26 8 12 0 28 9 36 20 8 11 20 20 27 20 7 0 13 5 13 10 0 6 9 10 20 10 17 0
20 -7 20 -49 0 -28 -5 -53 -10 -56 -6 -3 -10 -19 -10 -35 0 -16 -5 -32 -10
-35 -6 -3 -10 -21 -10 -40 0 -19 -4 -36 -9 -39 -5 -3 -11 -20 -14 -38 -3 -18
-10 -59 -16 -92 -16 -95 -28 -116 -67 -116 -18 0 -36 5 -39 10 -3 5 -15 10
-26 10 -10 0 -19 5 -19 10 0 6 -7 10 -15 10 -8 0 -15 4 -15 9 0 5 -17 12 -37
16 -21 4 -43 15 -51 26 -7 10 -18 19 -23 19 -12 0 -59 46 -59 57 0 5 -7 18
-15 30 -31 44 -65 -3 -65 -90 0 -69 12 -107 43 -141 15 -16 29 -38 33 -50 3
-11 37 -51 75 -88 39 -38 63 -68 54 -68 -8 0 -15 -4 -15 -10 0 -5 -7 -10 -15
-10 -8 0 -15 -4 -15 -10 0 -5 -7 -10 -15 -10 -8 0 -15 -4 -15 -10 0 -5 -9 -10
-19 -10 -11 0 -26 -7 -35 -15 -8 -8 -22 -15 -30 -15 -9 0 -16 -4 -16 -10 0 -5
-6 -10 -12 -10 -7 0 -24 -9 -38 -20 -14 -11 -34 -20 -45 -20 -11 0 -29 -7 -39
-15 -11 -8 -28 -15 -38 -15 -10 0 -18 -4 -18 -10 0 -5 -9 -10 -20 -10 -31 0
-36 -27 -9 -49 22 -19 53 -31 140 -59 19 -7 82 -12 140 -12 57 0 99 -4 93 -8
-6 -4 -14 -22 -17 -40 -4 -18 -12 -39 -19 -46 -7 -7 -22 -26 -33 -41 -21 -30
-142 -164 -160 -177 -40 -29 -62 -46 -81 -65 -13 -13 -27 -23 -32 -23 -5 0
-18 -11 -30 -25 -12 -14 -25 -25 -29 -25 -5 0 -8 -59 -8 -131 l0 -131 66 6
c61 5 105 16 154 36 48 20 83 29 130 34 82 9 181 25 199 32 13 5 16 0 16 -25
0 -17 -4 -31 -10 -31 -5 0 -10 -14 -10 -31 0 -17 -4 -28 -10 -24 -6 4 -10 -5
-10 -20 0 -14 -4 -33 -9 -43 -18 -36 -30 -68 -36 -100 -4 -17 -11 -32 -16 -32
-5 0 -9 -9 -9 -20 0 -11 -4 -20 -10 -20 -5 0 -10 -9 -10 -20 0 -11 -4 -20 -10
-20 -5 0 -10 -7 -10 -15 0 -8 -4 -23 -9 -33 -4 -9 -20 -42 -35 -72 -47 -99
-83 -158 -119 -194 -20 -20 -40 -36 -44 -36 -10 -1 -53 -36 -53 -44 0 -11 -35
-46 -46 -46 -20 0 -104 -87 -104 -109 0 -21 1 -21 358 -21 l358 0 12 93 c7 50
17 112 23 137 6 25 16 72 23 105 20 89 45 143 69 151 12 4 24 10 27 14 11 16
116 68 128 63 6 -3 12 -19 12 -36 0 -18 7 -52 16 -76 8 -24 17 -63 20 -85 3
-23 14 -94 25 -159 10 -65 19 -136 19 -157 0 -46 14 -52 107 -43 49 5 63 10
63 22 1 62 13 169 20 186 10 22 18 81 26 185 3 36 9 74 13 85 5 11 14 54 21
95 20 125 44 230 53 230 4 0 5 5 2 10 -3 6 1 10 9 10 9 0 16 5 16 10 0 6 5 10
11 10 15 0 6 -68 -21 -160 -30 -102 -61 -290 -76 -465 -3 -33 -10 -64 -15 -70
-5 -5 -9 -33 -9 -62 0 -29 -4 -53 -10 -53 -5 0 -10 -7 -10 -15 0 -13 26 -15
171 -15 151 0 176 2 222 21 29 12 64 27 80 33 15 6 27 14 27 18 0 5 6 8 13 8
18 0 67 23 67 32 0 4 20 10 45 14 25 3 48 10 51 15 3 5 14 9 25 9 10 0 19 5
19 10 0 6 3 10 8 10 8 0 32 -48 32 -66 0 -7 8 -18 18 -23 16 -10 16 -10 0 -12
-10 -1 -22 -3 -28 -4 -5 -1 -16 -3 -23 -4 -7 0 -29 -15 -47 -31 -24 -21 -29
-30 -17 -30 9 0 17 4 17 8 0 32 152 45 169 15 8 -15 33 -17 188 -21 l180 -4
37 45 c29 36 47 48 79 55 62 12 112 -1 150 -37 51 -50 63 -61 70 -61 14 0 6
20 -18 44 -14 14 -25 29 -25 35 0 5 -9 13 -20 16 -21 7 -28 25 -10 25 6 0 10
7 10 15 0 15 19 55 31 65 3 3 12 23 19 45 7 22 27 72 45 110 18 39 38 87 45
108 l12 39 62 -5 c78 -7 185 -24 211 -35 63 -28 210 -71 242 -72 10 0 13 52
15 211 l3 211 22 -18 c21 -18 23 -29 29 -221 l7 -202 28 -12 29 -11 0 -174 0
-174 55 0 55 0 1 108 c1 64 4 97 8 82 5 -15 11 33 16 128 4 84 12 155 16 158
5 3 9 34 9 70 0 36 4 64 10 64 6 0 10 -4 10 -10 0 -5 9 -10 20 -10 11 0 20 -4
20 -9 0 -5 15 -13 33 -16 17 -4 34 -11 37 -15 7 -11 138 -80 152 -80 17 0 68
-61 68 -82 0 -10 5 -18 10 -18 6 0 10 -16 10 -35 0 -19 5 -35 10 -35 6 0 10
-18 10 -39 0 -22 4 -42 9 -45 4 -3 11 -37 15 -76 4 -38 11 -72 17 -75 5 -4 9
-19 9 -36 l0 -29 270 0 270 0 0 60 c0 48 -4 64 -22 83 -75 79 -108 118 -108
129 0 13 -61 140 -72 148 -3 3 -9 22 -13 43 -4 20 -11 37 -16 37 -5 0 -9 9 -9
19 0 11 -4 23 -10 26 -5 3 -10 15 -10 26 0 10 -4 19 -10 19 -5 0 -10 12 -10
26 0 14 -4 23 -9 19 -5 -3 -13 20 -16 50 -4 30 -11 55 -16 55 -5 0 -9 14 -9
30 0 17 -4 30 -10 30 -5 0 -10 14 -10 30 0 17 -4 30 -10 30 -5 0 -10 15 -10
34 0 19 -4 38 -10 41 -5 3 -10 31 -10 61 0 40 4 54 14 54 8 0 18 -4 21 -10 3
-5 28 -12 56 -16 27 -4 52 -11 55 -15 3 -5 16 -9 29 -9 13 0 26 -4 29 -9 6 -8
31 -14 119 -27 20 -4 40 -10 43 -15 19 -31 24 9 24 184 0 181 -1 193 -20 207
-11 8 -20 19 -20 25 0 12 -32 55 -67 92 -13 13 -23 28 -23 34 0 5 -17 33 -39
62 -21 29 -55 80 -76 115 -21 34 -41 62 -45 62 -4 0 -10 14 -14 30 -3 17 -15
40 -26 52 -11 12 -20 28 -20 35 0 7 -4 13 -10 13 -5 0 -10 11 -10 25 0 14 -4
25 -10 25 -5 0 -12 22 -16 50 -4 28 -10 50 -15 50 -5 0 -9 18 -9 40 0 22 -4
40 -10 40 -5 0 -10 18 -10 39 0 22 -4 43 -10 46 -5 3 -10 24 -10 45 0 21 -4
41 -9 44 -5 3 -12 44 -16 91 -4 47 -10 85 -15 85 -4 0 -10 17 -13 38 -6 39
-18 95 -37 172 -6 25 -15 70 -20 100 -4 30 -21 105 -38 165 -40 147 -44 165
-34 165 9 0 60 -22 94 -41 10 -5 24 -9 32 -9 8 0 34 -10 58 -21 56 -28 77 -36
108 -42 36 -7 124 -41 128 -49 2 -5 16 -8 31 -8 15 0 31 -4 37 -10 5 -5 42
-12 81 -16 l71 -7 -3 263 -3 263 -29 23 c-15 13 -32 23 -36 24 -5 0 -22 14
-37 30 -15 17 -32 30 -37 30 -10 0 -55 34 -89 68 -13 12 -27 22 -31 22 -4 0
-40 24 -79 53 -39 28 -81 59 -94 67 -13 8 -34 25 -48 38 -14 12 -32 22 -41 22
-9 0 -23 9 -31 20 -8 11 -19 20 -24 20 -5 0 -16 8 -25 19 -9 10 -26 21 -38 25
-13 4 -23 12 -23 17 0 5 -7 9 -15 9 -8 0 -15 5 -15 10 0 6 -6 10 -14 10 -7 0
-19 7 -26 15 -7 8 -32 24 -56 35 -24 10 -44 23 -44 28 0 5 -24 19 -52 33 -29
13 -55 26 -58 29 -3 3 -17 11 -32 19 -15 8 -30 22 -34 33 -3 10 -12 18 -19 18
-8 0 -24 11 -37 25 -24 26 -52 55 -90 92 -13 13 -32 33 -44 45 -12 13 -31 30
-43 38 -11 8 -23 22 -26 30 -3 9 -23 27 -45 41 -22 13 -40 28 -40 33 0 14 -55
63 -79 71 -11 3 -21 11 -21 16 0 5 -7 9 -15 9 -8 0 -15 5 -15 10 0 6 -6 10
-13 10 -8 0 -22 9 -31 19 -10 11 -30 22 -44 26 -15 3 -58 22 -97 40 -38 19
-81 36 -95 39 -14 3 -65 14 -115 25 -49 11 -108 23 -130 26 -22 3 -60 9 -85
12 -24 3 -51 12 -58 20 -7 7 -22 13 -33 13 -10 0 -19 3 -19 8 0 10 -50 32 -72
32 -10 0 -18 4 -18 9 0 11 -41 20 -155 32 -49 5 -111 14 -136 20 -42 9 -194
11 -202 2z m1708 -1269 c16 -56 14 -91 -5 -79 -5 3 -10 15 -10 25 0 10 -4 22
-10 25 -13 8 -13 85 -1 85 5 0 17 -25 26 -56z m-451 14 c17 -84 14 -117 -9
-100 -32 22 -45 88 -23 110 18 18 27 15 32 -10z m-277 -50 c-3 -8 -6 -5 -6 6
-1 11 2 17 5 13 3 -3 4 -12 1 -19z m790 -20 c-3 -7 -5 -2 -5 12 0 14 2 19 5
13 2 -7 2 -19 0 -25z m-427 -4 c0 -8 -4 -14 -10 -14 -5 0 -10 9 -10 21 0 11 5
17 10 14 6 -3 10 -13 10 -21z m-155 -4 c3 -5 1 -10 -4 -10 -6 0 -11 5 -11 10
0 6 2 10 4 10 3 0 8 -4 11 -10z m-1655 -125 c41 -21 72 -83 34 -68 -14 5 -16
1 -10 -33 14 -77 18 -234 7 -234 -6 0 -11 9 -11 20 0 11 -4 20 -8 20 -4 0 -16
14 -26 31 -10 17 -20 28 -23 25 -3 -3 -14 4 -26 15 -11 10 -27 19 -34 19 -7 0
-13 5 -13 10 0 6 -11 10 -24 10 -14 0 -27 4 -31 9 -3 6 -53 8 -113 7 -149 -5
-182 -14 -182 -52 0 -29 11 -31 30 -4 11 15 26 20 57 20 50 0 52 -5 18 -32
-14 -11 -25 -26 -25 -34 0 -8 -4 -12 -10 -9 -5 3 -10 -3 -10 -14 0 -12 -4 -21
-10 -21 -5 0 -10 -7 -10 -15 0 -8 -4 -15 -10 -15 -5 0 -10 -7 -10 -15 0 -8 -4
-15 -9 -15 -5 0 -12 -24 -15 -52 -4 -29 -11 -57 -16 -64 -6 -6 -10 -40 -11
-77 -1 -49 -4 -63 -13 -54 -27 30 -39 64 -50 139 -1 10 -5 21 -9 24 -13 14 -7
108 10 153 9 25 34 61 55 80 21 20 38 41 38 48 0 6 9 15 20 18 11 3 20 11 20
16 0 5 9 9 19 9 11 0 22 8 25 18 3 9 26 26 51 37 25 11 45 23 45 28 0 4 6 7
13 7 7 0 31 9 52 20 77 40 166 50 215 25z m1545 -80 c20 -38 44 -77 51 -86 8
-8 14 -21 14 -27 0 -7 4 -12 9 -12 5 0 11 -10 15 -23 3 -12 14 -32 26 -44 11
-12 20 -27 20 -34 0 -6 8 -19 19 -28 10 -9 21 -26 25 -38 4 -13 12 -23 17 -23
5 0 9 -9 9 -20 0 -11 4 -20 10 -20 5 0 22 -19 37 -42 16 -24 31 -44 36 -46 4
-2 7 -9 7 -16 0 -7 8 -21 18 -32 10 -11 27 -33 38 -49 23 -36 27 -42 59 -78
14 -15 25 -32 25 -37 0 -5 10 -20 23 -33 48 -50 56 -82 36 -146 -6 -20 -14
-49 -19 -66 -34 -132 -54 -189 -85 -237 -13 -20 -27 -48 -30 -61 -4 -14 -15
-34 -26 -46 -10 -11 -19 -26 -19 -33 0 -7 -11 -22 -25 -32 -14 -10 -25 -23
-25 -28 0 -13 -56 -68 -69 -68 -6 0 -11 -4 -11 -9 0 -5 -32 -30 -72 -55 l-72
-46 87 0 c86 0 132 13 245 67 17 9 35 14 38 10 7 -7 -140 -157 -154 -157 -5 0
-18 -8 -30 -17 -54 -47 -63 -53 -71 -53 -5 0 -11 -3 -13 -7 -4 -11 -150 -83
-165 -83 -24 0 -13 -20 13 -26 34 -9 226 4 234 15 3 5 21 11 40 13 19 3 43 8
53 13 25 11 23 -26 -3 -45 -11 -8 -20 -20 -20 -28 0 -7 -4 -11 -9 -8 -5 3 -11
-3 -14 -14 -3 -11 -13 -23 -23 -27 -10 -3 -35 -24 -57 -45 -22 -21 -50 -41
-63 -44 -13 -3 -24 -10 -24 -15 0 -5 -5 -9 -10 -9 -6 0 -20 -9 -32 -20 -12
-11 -28 -20 -35 -20 -7 0 -13 -4 -13 -9 0 -5 -15 -13 -32 -17 -18 -3 -40 -15
-49 -25 -9 -11 -21 -19 -28 -19 -6 0 -11 -4 -11 -10 0 -5 -9 -10 -20 -10 -11
0 -20 -4 -20 -9 0 -5 -13 -12 -30 -16 -16 -4 -30 -10 -30 -14 0 -4 -16 -13
-35 -21 -19 -8 -35 -17 -35 -22 0 -4 -9 -8 -20 -8 -11 0 -20 -4 -20 -10 0 -5
-6 -10 -12 -10 -7 0 -53 -20 -103 -45 -82 -41 -96 -45 -165 -45 -76 0 -90 5
-205 68 -11 6 -33 17 -50 25 -43 19 -76 39 -99 59 -11 10 -34 21 -52 24 -20 4
-36 14 -39 25 -4 10 -15 19 -26 19 -10 0 -19 5 -19 10 0 6 -9 10 -19 10 -10 0
-21 7 -25 15 -3 8 -14 15 -25 15 -11 0 -21 4 -23 8 -4 9 -93 72 -103 72 -8 0
-95 59 -113 77 -7 7 -18 13 -24 13 -12 0 -68 58 -68 70 0 5 -9 12 -20 15 -11
3 -20 13 -20 22 0 9 -8 23 -17 32 -10 9 -28 38 -41 65 l-23 48 32 29 c18 16
41 31 51 35 10 3 18 9 18 14 0 5 9 12 21 15 24 8 50 27 95 71 17 18 42 35 54
39 12 4 40 25 62 46 22 21 44 39 48 39 7 0 24 13 93 74 9 9 21 16 25 16 5 0
29 20 53 45 24 25 47 45 51 45 4 0 28 19 52 43 25 23 68 62 96 87 27 25 56 51
63 58 6 8 45 46 86 85 41 40 79 78 85 85 6 7 27 29 46 48 53 53 53 52 88 89
17 19 32 37 32 40 0 7 7 15 61 75 22 25 45 54 50 65 9 19 43 69 74 110 8 10
15 25 15 32 0 7 9 13 20 13 11 0 20 -4 20 -10 0 -5 9 -10 19 -10 11 0 23 -4
26 -10 3 -5 15 -10 26 -10 10 0 19 5 19 10 0 6 -9 10 -20 10 -11 0 -20 5 -20
10 0 6 -7 10 -15 10 -8 0 -15 5 -15 10 0 6 -7 10 -16 10 -11 0 -14 6 -8 23 3
12 11 24 15 25 5 2 9 12 9 23 0 10 4 19 9 19 5 0 12 16 15 35 4 19 11 35 16
35 6 0 10 6 10 14 0 8 3 16 8 18 11 5 50 88 58 123 10 42 25 69 34 59 4 -5 24
-40 45 -79z m-1451 -75 c10 -25 24 -58 31 -75 8 -16 19 -64 25 -105 17 -110
28 -172 35 -202 4 -15 4 -36 0 -45 -5 -10 -10 -37 -12 -60 -5 -62 -19 -92 -48
-99 -14 -3 -25 -10 -25 -15 0 -5 -9 -9 -19 -9 -11 0 -21 -4 -23 -9 -1 -6 -38
-13 -82 -17 l-78 -7 20 24 c12 13 30 35 41 48 12 13 21 30 21 38 0 7 5 13 10
13 6 0 10 12 10 26 0 14 4 23 10 19 6 -3 10 5 10 19 0 14 5 28 10 31 6 3 10
16 10 29 0 12 6 28 13 35 9 9 12 66 12 216 0 112 3 201 6 197 3 -4 14 -27 23
-52z m-241 -64 c4 -9 -3 -16 -18 -20 -14 -4 -30 -16 -36 -29 -7 -12 -27 -40
-45 -62 -39 -48 -55 -102 -61 -202 -4 -68 -6 -72 -24 -60 -10 6 -19 16 -19 21
0 5 -10 18 -22 30 -13 12 -24 29 -26 37 -2 7 -8 16 -13 17 -5 2 -9 12 -9 23 0
10 -5 19 -12 19 -9 0 -9 3 0 12 7 7 12 20 12 30 0 11 9 28 20 40 10 11 22 34
25 49 4 16 11 29 16 29 5 0 9 6 9 13 0 7 16 21 35 31 19 11 35 23 35 28 0 4
29 8 64 8 46 0 65 -4 69 -14z m102 -51 c14 -14 25 -32 25 -40 0 -8 5 -15 10
-15 6 0 10 -7 10 -15 0 -10 7 -15 18 -13 14 3 17 -4 15 -47 -3 -70 -14 -134
-24 -141 -5 -3 -9 4 -9 15 0 12 -4 21 -9 21 -5 0 -11 13 -14 28 -7 32 -99 132
-122 132 -8 0 -15 4 -15 9 0 5 -10 11 -22 13 -21 3 -21 3 6 35 25 29 43 38 88
42 9 0 29 -10 43 -24z m-86 -118 c9 -6 25 -21 37 -32 l21 -20 -30 -28 c-39
-36 -89 -57 -138 -57 -35 0 -39 3 -39 25 0 22 7 43 33 105 21 48 26 51 65 35
19 -9 42 -21 51 -28z m81 -96 c0 -11 5 -21 11 -23 14 -5 23 -86 15 -131 -4
-20 -24 -53 -49 -80 -23 -26 -48 -53 -55 -62 -9 -11 -32 -15 -80 -15 -90 0
-173 11 -166 21 3 5 0 9 -6 9 -6 0 -26 15 -45 34 -28 29 -35 43 -37 83 -4 83
2 163 12 163 6 0 10 -6 10 -14 0 -8 13 -24 30 -37 16 -13 32 -36 36 -51 3 -16
12 -28 20 -28 9 0 32 -16 52 -35 39 -36 134 -75 185 -75 41 0 29 24 -14 28
-19 2 -38 8 -43 13 -6 5 -16 9 -23 9 -7 0 -29 10 -48 23 -32 20 -35 26 -35 72
0 38 3 46 12 37 14 -14 78 -16 78 -3 0 5 17 11 38 15 24 4 46 17 62 36 29 34
40 37 40 11z m1220 -51 c0 -5 -2 -10 -4 -10 -3 0 -8 5 -11 10 -3 6 -1 10 4 10
6 0 11 -4 11 -10z m-20 -14 c0 -15 -50 -86 -81 -116 -20 -20 -40 -46 -43 -58
-4 -12 -12 -20 -17 -17 -5 4 -9 1 -9 -5 0 -16 -26 -40 -44 -40 -8 0 -17 -8
-21 -17 -3 -10 -19 -29 -35 -43 -17 -14 -53 -46 -81 -72 -27 -27 -55 -48 -61
-48 -5 0 -23 -13 -38 -30 -15 -16 -33 -30 -39 -30 -6 0 -11 -4 -11 -10 0 -5
-11 -12 -25 -16 -14 -3 -25 -10 -25 -15 0 -5 -6 -9 -13 -9 -7 0 -19 -9 -27
-20 -8 -11 -20 -20 -26 -20 -7 0 -14 -3 -16 -7 -3 -8 -76 -49 -148 -84 -19
-10 -58 -29 -86 -43 -28 -14 -54 -23 -58 -19 -3 3 -6 1 -6 -5 0 -7 -7 -12 -15
-12 -8 0 -15 -4 -15 -10 0 -5 -9 -10 -20 -10 -11 0 -20 5 -20 11 0 6 9 13 20
16 11 3 20 9 20 14 0 5 7 9 15 9 14 0 19 11 16 38 -1 7 11 12 33 12 19 0 38 5
41 10 3 6 17 10 31 10 13 0 24 5 24 10 0 6 9 10 19 10 11 0 22 4 25 9 4 5 24
12 46 16 22 4 40 11 40 16 0 5 7 9 15 9 8 0 15 5 15 10 0 6 7 10 15 10 8 0 15
6 15 14 0 15 -36 11 -46 -5 -3 -5 -14 -9 -25 -9 -10 0 -19 -4 -19 -10 0 -5
-11 -10 -24 -10 -13 0 -26 -4 -28 -10 -1 -5 -22 -12 -45 -16 -36 -5 -43 -4
-43 10 0 19 16 21 24 4 5 -10 7 -10 12 0 3 6 14 12 25 12 10 0 19 7 19 15 0 9
7 18 16 22 25 9 64 52 64 70 0 26 31 53 62 53 23 0 28 4 28 23 0 30 18 47 49
47 19 0 22 3 12 9 -11 7 -10 12 8 22 11 8 21 19 21 26 0 7 15 17 33 22 17 5
26 10 20 10 -28 2 -11 29 22 35 19 4 35 12 35 19 0 9 2 9 8 0 9 -14 62 29 62
52 0 11 11 15 41 15 39 0 41 2 37 25 -5 24 -3 25 38 25 32 0 44 4 44 15 0 8 8
15 19 15 10 0 24 7 31 15 7 8 24 14 38 12 14 -1 27 4 30 11 3 11 22 18 22 8z
m808 -86 c7 -11 20 -20 29 -20 12 0 14 -3 6 -11 -7 -7 -18 -3 -37 16 -27 27
-31 35 -18 35 4 0 13 -9 20 -20z m47 -50 c3 -5 -1 -10 -10 -10 -9 0 -13 5 -10
10 3 6 8 10 10 10 2 0 7 -4 10 -10z m103 -140 c-1 -16 -6 -30 -13 -30 -7 0
-10 11 -7 30 2 17 8 30 12 30 5 0 8 -13 8 -30z m-1428 -240 c0 -15 -106 -111
-208 -188 -26 -20 -51 -41 -57 -47 -5 -6 -27 -22 -48 -36 -20 -13 -39 -31 -42
-41 -3 -9 -17 -19 -32 -23 -14 -3 -38 -19 -54 -36 -15 -16 -30 -29 -34 -29 -3
0 -13 -6 -20 -12 -33 -30 -45 -38 -55 -38 -5 0 -10 -4 -10 -10 0 -14 -27 -12
-34 3 -3 6 -3 2 0 -10 3 -13 1 -23 -5 -23 -14 0 -14 57 -1 65 6 3 10 2 10 -3
0 -6 9 -8 21 -5 15 4 17 8 8 14 -13 8 -6 24 10 24 4 0 22 15 40 33 18 17 36
30 40 27 5 -2 14 7 21 20 7 14 19 25 26 25 7 0 16 9 19 20 3 11 13 20 21 20 8
0 14 6 14 14 0 8 9 18 20 21 11 3 20 10 20 13 0 4 20 16 45 27 25 11 45 23 45
28 0 4 7 7 15 7 9 0 26 9 38 20 11 11 38 28 59 37 21 9 38 20 38 25 0 4 7 8
15 8 8 0 15 5 15 10 0 6 6 10 13 10 7 0 19 9 27 20 16 22 20 24 20 10z m-620
-458 c0 -5 -7 -9 -15 -9 -8 0 -15 4 -15 9 0 4 7 8 15 8 8 0 15 -4 15 -8z m570
-762 c0 -5 9 -10 19 -10 11 0 22 -4 25 -9 3 -5 41 -26 83 -46 43 -21 86 -42
96 -47 25 -13 167 -12 180 1 6 6 24 11 39 11 24 0 71 21 88 40 16 17 62 39 95
46 l37 7 -6 -54 c-14 -124 -18 -224 -8 -214 6 6 12 28 14 50 2 34 6 39 23 37
11 -2 22 -8 23 -13 2 -5 12 -9 23 -9 10 0 19 -3 19 -7 0 -10 49 -33 67 -33 7
0 23 -6 34 -12 17 -10 23 -10 26 0 7 19 23 14 23 -8 0 -11 -4 -20 -10 -20 -5
0 -10 -13 -10 -30 0 -16 -4 -30 -10 -30 -5 0 -10 -11 -10 -25 0 -14 -4 -25
-10 -25 -5 0 -10 -9 -10 -20 0 -21 -24 -98 -45 -145 -7 -16 -23 -60 -36 -97
-18 -56 -26 -68 -44 -68 -11 0 -31 9 -43 20 -12 11 -28 20 -37 20 -8 0 -15 5
-15 10 0 6 -9 10 -20 10 -11 0 -20 4 -20 10 0 5 -17 12 -37 15 -21 3 -46 10
-55 16 -10 5 -29 9 -43 9 -14 0 -25 5 -25 10 0 6 -18 10 -40 10 -22 0 -40 5
-40 10 0 13 -37 13 -45 0 -3 -5 -26 -10 -51 -10 -24 0 -44 -4 -44 -10 0 -5
-13 -10 -30 -10 -16 0 -30 -4 -30 -9 0 -5 -22 -11 -50 -15 -27 -4 -50 -11 -50
-16 0 -6 -6 -10 -13 -10 -18 0 -67 -24 -67 -32 0 -5 -9 -8 -20 -8 -11 0 -20
-4 -20 -10 0 -5 -9 -10 -19 -10 -21 0 -31 19 -31 56 0 13 -4 24 -10 24 -5 0
-10 22 -10 48 0 26 -4 52 -9 58 -5 5 -12 36 -15 69 -8 93 -23 207 -31 235 -6
23 -3 26 37 38 24 6 62 15 86 18 23 4 42 10 42 15 0 5 4 9 10 9 5 0 12 -17 15
-37 4 -21 13 -54 20 -73 l14 -35 0 47 c1 48 -22 189 -38 241 -7 21 -6 27 5 27
8 0 14 -4 14 -10z m787 -692 c-3 -8 -6 -5 -6 6 -1 11 2 17 5 13 3 -3 4 -12 1
-19z m-427 -18 c25 -7 70 -16 100 -20 71 -11 114 -21 120 -29 7 -9 73 -31 92
-31 24 0 29 -26 9 -48 -12 -15 -21 -18 -32 -11 -8 5 -26 9 -41 9 -16 0 -28 5
-28 10 0 6 -12 10 -26 10 -31 0 -126 26 -171 46 -17 8 -36 14 -42 14 -6 0 -20
5 -30 12 -19 12 -67 -3 -179 -53 -23 -10 -48 -19 -56 -19 -7 0 -34 -11 -60
-24 -51 -26 -76 -25 -76 3 0 10 21 25 55 40 30 14 55 28 55 32 0 3 26 14 58
24 31 9 80 25 107 36 51 19 68 19 145 -1z m365 -147 c-4 -10 -10 -26 -12 -35
-3 -10 -9 -18 -14 -18 -5 0 -9 -6 -9 -12 0 -7 -9 -24 -19 -38 l-19 -24 11 37
c7 20 15 37 19 37 5 0 8 7 8 15 0 8 5 15 10 15 6 0 10 9 10 20 0 11 5 20 11
20 7 0 8 -7 4 -17z"/>
<path d="M3120 3030 c8 -5 24 -10 34 -10 26 0 18 6 -19 14 -22 5 -26 4 -15 -4z"/>
<path d="M3050 2861 c0 -14 6 -21 20 -21 11 0 20 -3 20 -6 0 -13 -30 -34 -49
-34 -12 0 -21 -4 -21 -9 0 -5 -9 -13 -20 -16 -23 -7 -27 -25 -5 -25 18 0 9
-28 -17 -51 -18 -16 -24 -39 -11 -39 4 0 26 10 50 21 41 20 75 19 43 -1 -20
-12 -22 -251 -2 -257 6 -3 12 -12 12 -21 0 -10 9 -23 20 -30 18 -11 20 -10 20
8 0 11 -4 20 -10 20 -20 0 -10 61 15 85 24 25 65 34 65 15 0 -5 11 -10 25 -10
14 0 25 5 25 10 0 6 15 10 33 10 25 0 36 -6 50 -31 18 -32 23 -79 8 -79 -5 0
-11 -11 -13 -24 -6 -32 14 -24 33 12 8 15 16 29 20 32 3 3 12 21 20 40 15 37
16 188 2 199 -5 3 -14 16 -21 29 -11 20 -10 22 8 22 11 0 20 -4 20 -9 0 -5 20
-12 45 -15 25 -4 45 -11 45 -16 0 -5 15 -17 33 -26 46 -25 56 -42 57 -103 0
-50 1 -53 15 -35 8 10 15 26 15 35 0 24 24 30 49 12 34 -23 36 -8 4 27 -15 18
-29 41 -29 52 -2 23 -77 98 -99 98 -8 0 -15 5 -15 10 0 6 -7 10 -15 10 -8 0
-15 4 -15 9 0 6 -20 13 -45 17 -25 3 -45 10 -45 15 0 5 -20 9 -45 9 -25 0 -45
5 -45 10 0 6 -18 10 -39 10 -22 0 -43 5 -46 10 -3 6 -22 10 -41 10 -19 0 -34
4 -34 9 0 5 -12 11 -27 13 -16 3 -36 9 -45 13 -14 5 -18 2 -18 -14z m178 -155
c11 -25 -1 -96 -16 -96 -30 0 -45 83 -20 108 17 17 23 15 36 -12z m122 -102
c0 -8 -4 -12 -10 -9 -5 3 -10 10 -10 16 0 5 5 9 10 9 6 0 10 -7 10 -16z m-130
-59 c0 -14 -4 -25 -10 -25 -5 0 -10 11 -10 25 0 14 5 25 10 25 6 0 10 -11 10
-25z"/>
<path d="M3510 2389 c0 -5 5 -7 10 -4 6 3 10 8 10 11 0 2 -4 4 -10 4 -5 0 -10
-5 -10 -11z"/>
<path d="M2862 1811 c-11 -7 -10 -10 3 -15 9 -3 26 -6 38 -6 12 0 29 -10 37
-22 15 -24 17 -29 19 -51 0 -8 11 -25 23 -38 18 -20 20 -21 13 -4 -4 11 -10
32 -13 48 -2 15 -8 27 -13 27 -5 0 -9 8 -9 19 0 35 -66 63 -98 42z"/>
<path d="M2304 1792 c-17 -11 -34 -48 -34 -74 1 -19 4 -17 21 16 11 21 29 41
40 43 10 3 19 9 19 14 0 11 -31 12 -46 1z"/>
<path d="M4340 3069 c0 -5 5 -7 10 -4 6 3 10 8 10 11 0 2 -4 4 -10 4 -5 0 -10
-5 -10 -11z"/>
<path d="M4373 3053 c9 -2 23 -2 30 0 6 3 -1 5 -18 5 -16 0 -22 -2 -12 -5z"/>
<path d="M4440 3030 c0 -6 7 -13 15 -17 24 -9 27 1 5 15 -13 8 -20 8 -20 2z"/>
<path d="M4490 3013 c0 -6 8 -17 18 -24 16 -13 16 -13 2 6 -8 11 -16 22 -17
24 -2 2 -3 0 -3 -6z"/>
<path d="M4570 2983 c8 -3 22 -11 30 -17 13 -10 13 -9 1 7 -7 9 -21 17 -30 16
-13 0 -14 -1 -1 -6z"/>
<path d="M4372 2950 c0 -19 2 -27 5 -17 2 9 2 25 0 35 -3 9 -5 1 -5 -18z"/>
<path d="M4885 2900 c-3 -5 3 -10 14 -10 12 0 21 5 21 10 0 6 -6 10 -14 10 -8
0 -18 -4 -21 -10z"/>
<path d="M626 2891 c8 -8 43 -8 38 0 -2 4 -13 7 -24 6 -10 -1 -17 -3 -14 -6z"/>
<path d="M570 2870 c0 -5 4 -10 9 -10 6 0 13 5 16 10 3 6 -1 10 -9 10 -9 0
-16 -4 -16 -10z"/>
<path d="M408 2843 c7 -3 16 -2 19 1 4 3 -2 6 -13 5 -11 0 -14 -3 -6 -6z"/>
<path d="M4894 495 c-4 -10 2 -25 15 -38 l22 -22 -3 34 c-3 37 -24 53 -34 26z"/>
<path d="M1190 94 c0 -21 4 -34 11 -32 6 2 10 7 10 11 -1 4 -1 18 -1 32 0 14
-4 25 -10 25 -5 0 -10 -16 -10 -36z"/>
<path d="M4080 80 c0 -5 5 -10 10 -10 6 0 10 5 10 10 0 6 -4 10 -10 10 -5 0
-10 -4 -10 -10z"/>
</g>
</svg>
